<?xml version="1.0" encoding="UTF-8" standalone="no"?> <svg id="Layer_1" data-name="Layer 1" xmlns="http://www.w3.org/2000/svg" viewBox="0 0 128 128"><defs><style>.cls-1{fill:#2d3e50;}.cls-2{fill:#2e79bd;}</style></defs><title>n</title><path class="cls-1" d="M118.07724,36.0939a3.16335,3.16335,0,0,0-3.16988-3.16985H101.16016v6.3397h13.74721A3.16808,3.16808,0,0,0,118.07724,36.0939Z"/><path class="cls-1" d="M24.29414,55.32385a8.03723,8.03723,0,0,1-7.87863-6.48775,7.5491,7.5491,0,0,1-.1503-1.56585,8.2069,8.2069,0,0,1,8.20167-8.0065h2.3757V32.924H24.52969A14.58853,14.58853,0,0,0,9.92326,47.4183c.018,1.78346,0,7.37837,0,8.69746v62.63646a7.35013,7.35013,0,0,0,7.329,7.329h93.4982a7.34822,7.34822,0,0,0,7.32678-7.329V102.84466H86.8117A15.41654,15.41654,0,0,1,71.40216,87.19508a15.56345,15.56345,0,0,1,15.6406-15.17175h31.03447V56.11576a7.70264,7.70264,0,0,0-.04039-.79191Z"/><path class="cls-2" d="M75.36168,87.43287a11.46259,11.46259,0,0,0,11.45,11.45h31.26554V75.98731H86.8117A11.4602,11.4602,0,0,0,75.36168,87.43287Zm18.87776-2.95673a3.09806,3.09806,0,1,1,0,6.19612h-6.8826a3.09806,3.09806,0,0,1,0-6.19612Z"/><path class="cls-2" d="M45.15277,1.91875h-5.568a7.80671,7.80671,0,0,0-7.80686,7.80684v40.0729H45.15277Z"/><path class="cls-2" d="M96.22255,9.72559A7.80622,7.80622,0,0,0,88.418,1.91875H55.49237V49.79849H96.22255ZM88.8599,33.27176a2.65587,2.65587,0,0,1-2.65614,2.65613H79.974a2.65776,2.65776,0,0,1-2.65833-2.65613V11.95548A2.65775,2.65775,0,0,1,79.974,9.29937h6.22978a2.65586,2.65586,0,0,1,2.65614,2.65611Z"/></svg>